<svg width="512" height="512" xmlns="http://www.w3.org/2000/svg">

 <g>
  <title>Layer 1</title>

  <path stroke="null" fill="#00bf6f" id="svg_2" class="cls-1" d="m449.31297,282.00931a60.27319,62.48084 0 0 0 -14.27523,1.85639a184.19649,190.94314 0 0 0 -145.82222,-140.87361c-3.17227,-0.58344 -6.03755,-1.00776 -9.26099,-1.43207c0.51166,-18.03352 1.33031,-38.87814 26.96432,-57.65422l-4.04209,-10.60795s-49.88655,15.91193 -55.66827,60.30621c-2.50712,-12.04003 -25.58285,-27.10332 -37.24862,-29.96746l-5.73056,9.6002a40.1139,41.58317 0 0 1 18.98247,29.75531a184.19649,190.94314 0 0 0 -145.87339,140.82057a59.76153,61.95044 0 1 0 7.52136,117.69523a183.17318,189.88234 0 0 0 19.3918,37.44607l49.57956,-34.63496l-0.40933,-0.58344a122.13251,126.60591 0 0 1 -22.46174,-68.95169c-1.48381,-28.21715 5.11657,-56.27519 22.56407,-72.77055c35.81598,-31.82386 74.90657,-17.23792 99.36377,13.10082l6.60037,0c24.4572,-30.33874 63.49662,-44.76556 99.36377,-13.10082c17.39634,16.49537 24.04788,44.5534 22.56407,72.77055a122.13251,126.60591 0 0 1 -22.46174,68.95169l-0.40933,0.58344l49.57956,34.63496a183.17318,189.88234 0 0 0 19.3918,-37.44607a59.71036,61.8974 0 1 0 21.84775,-119.55162l-0.05117,0.05304zm-387.42662,80.19612a17.65216,18.29872 0 0 1 0,-36.5444a17.7545,18.4048 0 0 1 9.87498,3.18239a267.80123,277.61011 0 0 0 1.89313,28.69451a17.65216,18.29872 0 0 1 -11.76811,4.6675zm388.60343,0a17.65216,18.29872 0 0 1 -11.76811,-4.6675a267.80123,277.61011 0 0 0 1.89313,-28.69451a17.601,18.24568 0 0 1 27.47598,15.16937a17.601,18.24568 0 0 1 -17.65216,18.19264l0.05117,0z"/>
 </g>
</svg>